<?xml version='1.0' encoding='utf-8'?>
<svg fill="url(#grad1)" xmlns="http://www.w3.org/2000/svg" enable-background="new 0 0 5000.1704 662.7896" version="1.1" viewBox="0 0 5000.2 662.79"> 
    <linearGradient id="grad1" x1="0%" x2="100%" y1="0%" y2="0%">
      <stop offset="0%" stop-color="yellow" />
      <stop offset="50%" stop-color="orange" />
      <stop offset="100%" stop-color="#0592CA" />
    </linearGradient>
    <g stroke="#000"> <path  d="m575.18 532.95c-0.9 3.4-3.9999 68.799-5.0999 76.198-0.3 1.7999-0.4999 3.7-0.3 5.6999-2.2-0.6-18.4-9.8998-28.899-1.7-5.2999 4.1999-1.7 14.1 3.5999 18.1 7.9998 6.1999 18.6 8.6998 25.9 0.9999 3.0999-4.3999 3.5999-16.3 3.2999-21.5 0-0.2 3.5999-60.199 3.5999-60.399 0.2 0 36.499 4.4 54.499 2.7 0.7 2.9-3.4 60.699-4.2 70.099-3.4999-0.1-4.8999-1.9-15-0.1-26.9 8.4999-17.3 37.199 6.3999 27.299 18.3-10.7 9.8998-19.7 16.6-101.6 0-4.7 1.2999-9.3998 0.2-14-2.7999-0.4999-19.2 0.3-25.3-0.2-2.4999-0.2-4.8999-0.4-7.3998-0.1-25.5-1.3998-25.199-2.0998-27.899-1.4998zm56.499 13.2c0.6 0.7 0.4 1.7999 0.6 2.5999-7.2999 1.0999-37.199-0.5-54.599-2.4999-0.1-0.8-0.2-1.5-0.3-2.3 1.5 0 32.499 3.6999 54.299 2.2z" stroke-width=".0429"/> <path d="m177.79 452.25c-7.2999-0.7-4.6999 0.8-6.9999-23.8-0.5-18.4-8.1998-114.1-8.1998-114.3-6.2999-1.2-5.8999-0.3-12.5-5.8999-5.6999-5.5999-10.9-14.5-14.7-24.8-1.3-3.7-2.1-7.6999-2.9999-11.7-0.6-2.7-0.3-5.2999-0.4-7.7998-0.2-5.4999 1.3-9.7998 3.5999-11.7 11.9-0.6 21.7 20.8 26 31.899 6.2999 16.2 4.3999 46.999 9.6998 102.8 0.1 6.5999 2.3999 35.099 2.7 37.399 4.6999 1.9-5.2999-1.8 46.799 11.1 1.8 0.2 3.5999 1.1 5.2999 0.9-0.1-0.9-7.9998-84.998-7.9998-85.398-3.4999-1-7.2999-3.8999-10.9-6.6999-7.9998-7.2998-15.5-19.9-19-33.399-2.5-9.4998-0.4-22.2 6.9999-15.9 5.4999 3.7 12.7 12.8 17.7 22.8 10.1 20.1 7.2999 21 13 81.798 0 0.2 3.2999 37.999 3.2999 38.199 3.5999 0.5 50.899 13.5 52.399 13.4-0.3-1.1-7.8998-58.199-8.0999-59.199-14.6-6.8998-28.199-27.999-29.799-37.899-0.4-2.7999-1.3-5.9999-0.8-7.8998 1.6-5.8999 5.6999-3.0999 9.9998 1.4 6.7999 6.9998 14.4 16.5 20.7 30.099 3.0999 6.5999 3.8999 18.5 4.3999 23.2 1.7999 17.4 8.8998 64.199 8.2998 65.099-6.7998-0.2001-80.598-10.9-108.5-13.7zm104.2 4.0999-0.4-1.6c-5.2999-1.6-50.999-12-52.099-12.1 0.1 0.9 0.3 1.9 0.4 2.7999 1.9 0.1002 50.099 10.9 52.099 10.9zm-55.299-12.1c-0.1-0.6-0.3-1.8-0.4-2.3999-1.7-0.7-50.399-10.5-51.799-11.1-0.2 1.2-0.1 2.4999 0 3.7999 0.3001 0.1 50.399 9.6998 52.199 9.6998z" stroke-width=".0429"/> <path d="m92.292 464.65c-21-15.1-28.799-62.099-29.699-88.298-1-28.1 0.8-34.499-0.7-41.699-2.3-5.7999-39.999-52.799-45.099-118.4-2.2-28.099 2.3-92.898 27.999-104.4 3.1999-2.1 6.7999-1.5 10.2-1.9 2.4999 0.2 5.0999 1.7 7.5998 2.6999-0.3-26.6 0.3-84.098-18.2-101-3.8999-3.5999-8.3998-5.1999-11.9-1.8 0 1.2 0.1 2.4 0.1 3.5999 2.5 1 4.6999 4.5999 6.7999 7.5998 7.3999 11.7 7.1999 24.3 6.8999 32.999-1.6 15.3-12.3 22.3-21.7 10.1-13.5-17.599-7.6998-84.698 21.6-57.899 20.4 22.4 19.9 78.498 19.9 108.8 28.699 25.2 42.299 109 21 135.8-3.4999 3.8999-7.5998 5.5999-11.7 6.6999-2.8999 1.4-5.8999 1.4-8.7998 1.8 0 14.1-0.2 28.199 0 42.399 22.8 41.399 31.799 56.099 36.199 102.8 0.6 19.8-1.3 42.699-2.9999 51.999-1.2001 5.8998-2.4001 11.2-7.4999 8.0998zm4.3999-18.5c1-2.7999 0.8-6.2999 1.2-9.4998 1.5-34.399-9.4998-61.899-28.399-90.998-0.9-1.8-2.9999-1.8-2.9999 1.2 0.3999 48.999 19.2 93.198 30.199 99.298zm-37.899-157.1c1.1 1.9 2.2 3.9999 3.4999 5.5999 0.2-2.7 0.6-5.2999 0.5-8.0998-0.3-28.5-0.4-21.2-8.8998-35.199-2.9999-4.8999-5.3999-11-8.1998-16.3-16.9-31.899-3.7999-83.498 4.8999-82.798 0.4 5.5999-3.6999 4.4999-4.9999 26.7-0.2 4.2999 0.3 8.6998 0.6 13 1.2 16.2 8.1998 31.199 15.9 33.699v-100.7c-4.7999-2.8999-9.6998-2.3999-14.4-1.6-20.2 9.6998-21 50.399-20.4 72.898 1.2999 45.499 19.5 72.399 31.499 92.798zm18.4-65.099c14.8-14.1 9.4998-83.398-11.2-96.098v98.898c4 1.8 7.8999 0.4 11.2-2.7999z" stroke-width=".0429"/> <path d="m686.98 562.25c-0.3 3.0999-6.1999-1.2999-17.8 6.5999-6.7999 5.1999-13.4 13.3-10.8 21.5 3.9 12.3 22.4 2.4999 28.4-7.5998 1.2-1.7 2.5999-3.4999 2.9999-5.4 1.9999-6.2999 1.3-17.2 0.8-23.9 0-0.2-0.6-29.499-0.3-31.599 1.9-1.8 8.8998-1.8 12.6 1.7999 5.2999 3.5999 9.4998 14.1 4.4999 25.7-0.7999 1.7999-1.9999 3.3999-2.7999 5.1999 0.1 0.1 0.4 0.3 0.5 0.5 4.6999-5.9999 11.6-21.2 9.7998-30.199-2.2-11.3-18-18-23.7-31.599-2.3-6.7999-1.5-11.7-4.2999-10.9-1.9 4.1999 0.6999 74.798 0.0999 79.898zm20.7-42.899c1.7 1.4 2.4 3.4 2.9999 5.4 0.2 0.7 0 1.4-0.2 2.0999-0.9999-1-1.2999-2.4-1.9999-3.4999-1.3-2.0999-6.7999-6.8999-10.8-8.2998-0.7999-0.2-1.4-0.7-1.9999-1.3 4.5999-1.0001 9.9998 4.0998 12 5.5998z" stroke-width=".0429"/> <path d="m336.89 458.35c-2-2.4999-0.9-3.8999-1.1-5.7999-0.2-1.4 0.3-2.4 0.1-3.7999-0.3-1.2 0.1-1.9999 0.1-3.0999-0.1-2.2 0-4.2999 0.1-6.2999-0.2-1.3-0.2-2.5999 0-3.5999 0.1-0.9-0.2-2.3-0.1-3.2999 0.3-2.5999-0.3-5.9999-0.3-8.8998-9.2998-9.9998-19.2-20.4-27.799-37.099-2.9999-5.7999-4.3999-10.7-3.2999-12.2 4.0999-5.0999 31.199 40.699 33.999 46.699 3.2 8.6999 0.9 6.6999 1.3 12.5 0 0.7-0.3 1-0.2 1.9 0.3 1.5-0.3 7.1999 0.1 8.9998 4.2999 3.4999 8.7998 6.7999 14.1 9.4998 6.3998 3.2999 7.8998 3.2 4.8999-1.7-0.4-1.1-3.3999-4.6999-4.0999-6.1999 1 1.3 1.9 2.3999 2.5999 3.2999 10.2 14.5 11.9 15.7 5.4999 12.8-5.2999-2.3999-13.8-6.2998-19.4-6.3998-2.7 0-3.4999 1.6-4.3999 3.0999-0.2 0.2-1 0.1-2.1-0.4zm24.7 0.9c-2.3-1.6 3.0999 2-11.9-5.8999-1.3-0.7-2.9999-1.8-3.9999-2 2.1999 1.5 17.2 10.1 15.9 7.8999z" stroke-width=".0429"/> <path d="m442.88 522.15c2.6-0.8 0.9-9.1998 1.2-12.2 0.1-29.599 0.2-27.2 0-28.1-0.4-0.7-0.9-1.7-2.9999-1.7-2.2 1.1-1.3 2.5999-1.4 3.8999 0 2.7999 0.4 27-0.9 29.599-10.4-7.0999-37.999-22.7-38.199-22.8-0.8-0.3-1.5-0.6-0.7 0.2 2.5999 3.5 32.899 32.299 42.999 31.1zm-8.8998-6.8999c-8.3998-3.4999-21.9-13.8-26.3-18.1-0.3-0.6-1.2-1.1 5.8999 3.2 7.2999 4.4999 29.299 17.8 20.4 14.9z" stroke-width=".0429"/> <path d="m505.98 547.35c-8.6998-4.3999-13.2-6.8999-23-7.0998-1.9 0.2999-3.4999 0.9-5.0999 1.4-7.1999 5.3999 19.6 28.4 30.799 17.9 2.3-5.5999 0.6-5.9999 0.8-59.199 0-2.5999-0.1-5.1999 0.2-7.7998-0.1-1.7999-0.4-3.5999-0.6-5.3999-0.9 0.2-2 0.2-2.5 0.9-1.7 2.8997 1.0999 5.3997-0.6 59.299z" stroke-width=".0429"/> <path d="m759.68 485.85c0.1 4.7999 0.4 36.999-0.4 52.699-32.799 11.3-37.099 38.699-22.1 32.299 6.1999-2.7 14.8-9.0999 22.6-19.6 5.1999-7.0999 3.5999-13.7 3.4999-21.9 0-1.9-0.2-27.1 0.1-28.999 12.2 3.2999 24 3.0999 22.3 12.1-1.8 9.8998-6.3999 13.7-6.2999 15.3 3.5999-3.4 10.3-12.8 11-18.3 0.8-6.2999-10.2-9.7998-15.6-12.9-1.7999-0.7-2.9999-1.9-4.6999-2.8999-2.3-1.3-3.7-3.2999-5.2999-5.0999-1.7-3.9999-1.9-7.9998-3.8999-7.0999-1.4 1.1999-1.1 2.8999-1.2 4.3999z" stroke-width=".0504"/> <g fill="none" stroke-width="2.2857"> <path d="m0.0935 382.26c181.7-7.2998 375.29 120.5 569.69 139.5 48.699 4.7999 94.598 2.5999 133.5-2.7 78.898-10.8 130.2-30.199 130.2-30.199"/> <path d="m0.0935 285.66c27.4-1.3 77.198 6.2999 130.2 29.399 231.2 100.7 394.39 385.79 703.09 184"/> <path d="m0.0935 189.06c15.4-1 46.399 3.3999 76.898 15.7 146.7 59.299 274.99 273.39 417.49 366.69 111 72.698 202.6 51.299 303.09-30.999 23.2-19 35.799-31.399 35.799-31.399"/> <path d="m0.0935 92.561s13.4-1.1 35.799 4.5999c178.4 45.699 324.69 423.99 496.69 534.29 80.298 51.499 151.1 34.199 223.9-29.7 26.599-23.3 60.199-60.499 76.898-82.398"/> </g> <path d="m1408.5 385.26c-0.5-3.5999-5.4-148.5-5.4-148.7-2.7999-2.5-18.7-6.0999-28.899-40.999-5.0999-17.5-2.0999-32.699 3.6-31.099 12.1 4.7999 21.9 27.399 25.899 41.999 3.2 11.6 3.6 34.999 3.3 42.499 0 0.2 3.5999 107.5 3.5999 107.7 0.2 0.1 42.399 19.1 54.499 26.5 0.6-2.9999-3.5999-83.198-4.1998-94.398-1-0.9-19.9-12-29.299-45.999-2.3-8.2998-2.6-16.8-0.2-20.5 4.0999-7.3998 16.9 13 20.9 20.5 11.6 21.9 12.1 34.399 12.6 46.199 0 0.2 2.6 70.199 2.6 70.399 2.1 46.499 2.3999 44.699 1.6 48.799-3-0.4-20.5-7.9998-25.3-9.4998-2.4-0.8-4.8999-1.5-7.3999-2.8999-4.6998-1.6-9.3998-2.9999-14.1-5.0999-1.8998-1-10.6-2.7-13.8-5.3999zm56.599 6.6998c0.5-0.7 0.4-2.0999 0.6-3.0999-3.4999-2.2-35.699-17.2-45.299-21.1-3.1-1.8999-6.1998-2.7-9.2999-3.9999-0.1 1.2-0.2 2.4999-0.3 3.7 1.5002 0.9999 35.799 14.7 54.299 24.499z" stroke-width=".0429"/> <path d="m1112.5 449.25c-76.898 5.8999-103 11-105.4 10.5-2.4999-1.1-1.5-5.3999-2.9-15.1-0.3-6.7999-5.8999-51.999-5.8999-53.099-0.6-5.0999-1.7-9.7998-2.2999-15-6.1999 6.1999-5.9 6.1999-12.5 10.3-5.7999 3.0999-10.9 4.0999-14.7 3.5999-1.2999-0.2-2.0999-1.1-2.9999-1.7999-0.5999-0.4-0.2999-1.9-0.4-2.8999-0.6-7.8998 17.6-29.499 29.599-26.4 2.7999 0.7 3.2 4.9999 4.1999 8.3998 0 0 7.7999 70.999 8.1999 72.899 6.1999-0.8-4.4 0.4 46.799-10.9 1.7999-0.7 3.5999-0.5 5.2999-1.7 0-0.2-7.9999-89.998-7.9999-90.198-8.2998 9.2998-23.1 14.9-29.899 4.4999-2.5999-4.6999 0-17.8 6.9999-24 12.1-12.8 22.6-8.8998 24.4-0.3 2.8999 13.3 9.4998 109.8 9.4998 110 4.3-1.5 42.999-8.3998 46.899-9.0998 1.7999-0.2 3.6998 0 5.4999-1.4-0.2-1.2-7.5999-109-8.0999-112.6-13.9 15.7-28.399 4.1999-29.799-5.1999-0.4-2.9999-1.3-5.8999-0.8-9.7998 1-7.3998 3.5-15.4 9.9998-19.2 4.4-2.9999 8.9999-4.5999 12.7-2.8999 11.7 5.4999 11 20.2 12.4 46.099 2 36.999 9.0999 130.8 8.2999 134.5-2.5001 0.7998-4.7999 0.2998-7.0999 0.7998zm2.9-20.5c-0.1-0.8-0.3-2.4999-0.4-3.2999-5.5999 0-49.599 7.6999-52.099 8.3998 0.1 1.1 0.3 2.2 0.4 3.2999 3.1-1 50.499-7.3998 52.099-8.3998zm-55.299 8.4998c-0.1-0.7-0.3-2.1-0.4-2.7-2.5-0.1-49.499 10.3-51.799 10.4-0.2 0.9-0.1 1.8 0 2.7 0.2-0.1 50.299-9.6998 52.199-10.4z" stroke-width=".0429"/> <path d="m925.58 475.45c-7.0999-0.7-33.599-4.5999-29.9-11.3 0-0.6 0.5-1.4-0.4999-1.4-1.5 0.4-12.7 5.0999-22.9 11.2-27.5 16.6-28.099 28.799-11.8 10.1 9.5998-11 23.5-30.599 35.299-46.999-0.1-0.7 0.1-1.7-0.2999-1.8 0.0999-1.3-1-0.9-1.7-0.8-4.5999 3.5999-11.7 15.7-16.2 23.1-28.699 47.599 3.4-6.0999 1.9-1-2.7 5.4999-16.5 24.8-21.7 32.299-7.2999 10.5-8.4998 14-4.5999 8.3998 13.3-18.9 40.899-72.298 45.299-68.599-0.1 0.8 0.7 0.3 0.5999 1.2 0.4 0.3 0.4 1.3 0.4 2.2999 5.4999-7.2998 16.4-21.9 24.4-26.5 5.2999-3.0999 8.5998-1 6.5999 5.8999-4.2999 15.1-18.7 28.199-30.599 38.699 0 1.8-0.2 3.7999 0 5.4999 10.1-4.6999 28.099-11.6 34.399-2.4 3.5999 5.2999 1.0999 15.3-1.2 19.3-1.4 2.1003-2.6 3.3002-7.4999 2.8003zm5.5999-7.6999c2.7999-17.2-31.199-8.5999-31.399-5.9999 0.7 3.2 5.7999 4.4999 14.6 6.2999 19 3.8999 15.6 2.4 16.8-0.3zm-35.499-9.7998c0.2-0.5 0.6-1 0.5-1.3 0-0.7 0.3-1.7-0.5-1.7-0.2-0.1-0.9 0.2-1.9999 0.9-22.2 14.9-28.899 24.7-17 9.6998 4.7999-6.0999 10.2-12.9 5.5999-6.6999s-3.2999 4.9999-2.7 4.8999c1.4-0.6 8.1998-6.0999 15.9-13.4v-11.4c-14.1 18.4-29.9 40.399-34.799 44.199-1.6001 0.7 8.5998-10.2 34.999-25.2zm19.7-41.199c-3.2 1.7-9.3998 8.4998-16.1 17.3v12.6c22.9-21.5 21.9-32.899 16.1-29.9z" stroke-width=".0429"/> <path d="m1519.5 469.65c0.1-104.6 6.8999-55.299-16.9-86.198-5.1998-6.7998-13.9-22-10.8-29.899 2.8999-9.1998 14.5 4.9999 20.5 12.6 11.5 17.4 13.5 22.6 11.7 42.899 0 0.2-0.6 27.399-0.3 29.399 1.7999 2.2 8.7998 3.7999 12.6 1.6 5.0999-1.7 9.3998-8.6998 4.4999-20.3-0.8-1.8-2-3.6999-2.8-5.5999 0.1 0 0.4-0.1 0.5-0.2 3.6 5.6999 11.7 21.4 9.7999 28.399-2.1 8.1999-17.7 10.4-23.7 23-2.2999 6.0999-1.3999 10.9-4.2999 10.1-0.8998-1.8998-0.7998-3.8998-0.7998-5.7997zm21.5-24.7c1.7-0.7 2.3999-2.2 2.9999-3.7 0.2-0.5 0-1.2-0.2-1.8-0.9999 0.5-1.2999 1.6-1.9999 2.4-1.1 1.2-6.7999 4.1999-10.8 4.5999-0.7999 0-1.3999 0.3-1.9999 0.7 4.5 1.7 10.1-1.4 12-2.1999z" stroke-width=".0429"/> <path d="m1170.2 367.86c-1.5-6.6999-1.2-147-1.2-181.2-3.8 3.0999-7.5999 6.4999-11.5 7.1998-6.3999 1.6-12.1-2-16.4-8.9998-6.6997-10.8-4.4999-37.999 8.2999-47.099 4.8999-2.3 10.2-4.2999 14.1-0.3 3.3999 2.9999 6.5999 7.3998 8.1997 14.7 3.4 26.4 0.5 62.199 1.1 74.498 0.3 7.2999-0.3 42.499 0.1 51.799 7.4999-0.7 11.5-8.1999 14.1-15.4 6.2999-17.4 7.9999-40.699 4.8999-59.199-0.4-6.6999-3.3999-10.3-4.0999-16.7 1 0.8 1.8999 2.2 2.5999 4.0999 23 68.499-2.4999 97.998-13.8 140.2-5.7995 21.8-2.2996 35.599-6.3996 36.399zm24.8-116.7c-2 3.4999-0.9 14.6-11.9 34.199-1.3 2.4-3 3.9999-4 7.2999 4.3999-0.5001 17.5-24.5 15.9-41.499z" stroke-width=".0429"/> <path d="m1276.2 246.26c2.8 14 1.1 54.299 1.2 68.599 1.1 147.2 0.8 156.4-2.9999 156.7-2.2-6.3999-1.3-14.6-1.4-22 0-48.999-0.4-162.6-0.9-170.3-10.5 4.0999-22.2 1.2-30.699-12.5-3-4.7999-5.9999-9.6998-7.4999-17.1-0.7-4.9999-1.4-10.4-0.7-15.8 1.3-11.5 6.1998-20.3 11.5-20.8 17.4-3.2999 28.2 17.2 31.499 33.199zm-8.8996 3.7999c-5.3999-10.1-12.3-15.4-19.2-17.5-2.4-0.3-5.1998-0.8-7.0999 3.2999-1.1 20.1 36.999 39.799 26.3 14.2z" stroke-width=".0429"/> <path d="m1339.4 294.86c-2.9-0.2-5.7999 0.1-8.7999-1.4-5.1998-1.4-10.1-7.9998-14.2-15.6-1.9-4.6999-3.5-9.9998-5.0999-15.2-2.2-10.6-0.9-23.6 3.3999-29.099 2.7999-2.2 6.0999-1.4 9.1997 0.2 10.4 5.4999 15.4 21 18.2 32.399 1.9 15 0.5 190.3 0.5 190.5-0.8999-0.7-1.9999-1-2.4999-2.8999-1.7999-7.7999 0.9001-11.2-0.6999-158.9z" stroke-width=".0429"/> <path d="m1593.1 475.35c0.1-2.3 0.4-17.7-0.4-25.8-10.9-7.0999-20.5-14.6-27.599-25.7-6.9999-10.9-2.9-18.9 28.099 19.9 4.9999 6.2999 3.6 7.5999 3.5 12.1 0 1-0.2 12.3 0.1 13.2 17.7 1.1 29.999 7.6999 16.8-4.0999-0.5-0.5-0.8-0.8-0.8-0.9 0.4 0.3 1.3 1 1.7 1.4 16 14.3 10.9 5.7999-10.9 7.5999-2.3 0.2-3.7 0.9-5.3 1.5-1.7999 1.7-1.8999 3.4999-3.8999 3.0999-1.5999-0.7001-1.2-1.5-1.3-2.3z" stroke-width=".0504"/> <g fill="none" stroke-width="2.2857"> <path d="m833.38 488.95c214.5-70.699 344.99-142.6 569.69-86.698 80.798 20.1 141.2 46.299 263.69 86.698"/> <path d="m833.38 499.05c77.198-46.699 172.1-127.8 263.69-173.4 107.3-53.399 198.6-53.399 305.99 0 91.798 45.699 186.3 126.6 263.69 173.4"/> <path d="m833.38 509.25c77.398-70.299 172.2-191.8 263.69-260.09 107.2-79.998 198.5-80.198 305.99 0 92.198 68.799 185.3 188.9 263.69 260.09"/> <path d="m833.38 519.35c156.7-189.8 298.99-511.79 494.39-405.39 122.1 66.499 235.6 280.29 338.89 405.39"/> </g> <path d="m2241.7 423.35c-0.3-1-5.3997-79.598-5.3997-79.698-1.7 1.8-17.2 22.6-28.899 24.3-11.6 1.7 16.6-44.099 29.399-42.099 3.3999 1.8 3.4998 15.2 3.3 18.9 0 0.2 3.5999 59.699 3.5999 59.899 0.2-0.1 44.799-24.5 54.499-28.299 0.5-3.2999-2.8-70.099-4.2-92.498-3.3 3.3999-4.8999 7.3999-15 14.5-26.999 14.3-16.7-27.7 6.3999-41.399 3.5999-1.3 6.8997-0.9 9.3997 1.1 2.7 3.5999 3 11.1 3.3 17.9 0 0.2 4.4998 122.2 4.1997 124.1-0.5 0.2001-60.399 23.2-60.599 23.3zm10.4-16.2c53.599-26.8 45.699-18.3 46.799-25.2-5 1.5-48.999 23.8-54.599 26.7-0.1001 0.8-0.2 1.5999-0.3 2.3999 2.7001-0.8001 5.4001-2.8 8.1-3.8999z" stroke-width=".0429"/> <path d="m1945.8 494.05c-78.698 3.8999-102.3 1.1-105.4 1.9-2.5 1.2-1.5 4.8999-2.9 14-0.5 9.5998-8.1998 66.099-8.1998 66.299-6.2998-2.5999-5.5999-2.7999-12.5-3.2-5.7 0.1-10.9 1.9-14.7 4.9999-1.3 1.1-2.1 2.7-3 4.0999-0.5999 0.9999-0.3 2.4-0.4 3.5999-0.1998 2.5999 1.4 5.7999 3.6 8.2998 8.5997 6.0999 17.9 6.5999 26-0.6 2.7999-2.4999 3.1998-6.6999 4.1998-10.5 0 0 7.3999-66.399 8.1998-69.799 4.5999-0.2999 14.6 1 46.799 0.4 1.8 0.2 3.5999-0.3 5.2999 0.3-0.5 2.7-2.9999 25.5-2.9999 25.7-4.1 37.699-2.9 18.9-3.2 26.2-0.2 4.7-1.3 9.1998-1.7 13.9-10.4-2.9999-24.4 2.0999-29.899 12.9-2.6998 5.4 0 14.8 6.9999 15.3 4.6998 0.9 12-0.3 17.7-5.2999 11.6-10.5 7.2999-19.7 13-58.499 0.4-4.5999 0.7-9.0998 1.5-13.6 0.5-2.2999 0.3-4.5999 0.7-6.7999 0.1-3.4 1.2-6.7999 1.1-10.2 8.5997 0.5 51.299-3.3999 52.399-3.1999-0.8 2.8999-4.5999 37.799-5.7999 45.499-0.2 2.4-1.1 4.7999-1.1 7.1999-0.6 2.9-0.5 5.7999-1.2 8.7998-14.6-0.9999-28.399 12.5-29.799 19.6-0.4 2.2-1.3 4.4999-0.8 6.5999 1.4 5.2999 4.6 6.9998 9.9999 5.2999 9.1997-2.2999 16.2-8.7998 20.7-16.2 3.3-5.2999 2.9-10.6 10.7-73.198 0.1-3.0999 1.1-6.1999 1.1-9.3998 0-2.3 2.1-7.8998 0.9-10.4-2.6999-0.4001-5-1e-4 -7.2999-1e-4zm2.8999 9.9998c-0.1 0.4-0.3 1.3-0.4 1.7-6.9999 1.1-46.499 3.3999-52.099 3.2 0.1-0.8 0.3-1.5 0.4-2.3 4.3001 0.4999 51.099-2.7 52.099-2.6zm-55.299 3.0999c-0.1 0.5-0.3 1.4-0.4 1.9-5.2999 0.9-50.499-0.2-51.799-0.1-0.2-0.8-0.1-1.6 0-2.4 1.3999-0.1 15.9 0.6 19.4 0.3 5.3 0.6 29-0.2 32.8 0.3z" stroke-width=".0429"/> <path d="m1758.9 484.15c-12.3 2.5999-27.299 11.7-29.699 24.8-0.2 2.5999-0.9 4.9999-0.2 7.7998 0 1.5 0.5 3.2-0.5 4.2-1.9 0.6-18.4-0.4-22.9-0.8-16.9-1.2999-20-2.9-22.2-0.1-2.7999 3.4999 7.9999 20.3 10.4 24.1 7.5997 11.7 20.7 28.4 35.299 42.399-0.1 1.9 0.1 4.0999-0.3 5.4999 0.1 3.2-1.6 9.6998-4.9999 9.1998-6.9999-0.1-21-20.3-24.9-26.4 0.2-1.4999-0.8-0.7 6.8999 7.1999 3.2999 3.4 6.0999 5.0999 6.8999 4.0999 0.1-0.7999 0.1-1.7 0-2.7999-3-10.9-37.499-49.899-26.3-27.299 5.4999 11.1 36.699 61.699 44.699 47.299 0.3-2.7 1.4999-6.0999 1.4999-13.7 4.1 3.2 8.1998 6.0999 11.9 7.6999 14 6.0999 22-4.0999 19.1-16.3-3.9999-16.9-16-25.3-30.599-35.199 0-4.2999-0.2-8.6998 0-13 14.4-0.6 29.1-3.5999 34.399-17 3.4999-8.6999 1.1998-22.2-1.2-28.2-1.3001-3-2.7002-4.4-7.3-3.5zm-2.1 9.5998c8.5999-3.7 6.5999-2 7.6998 1.7999 1.1 10.5-4.5999 17.6-14.2 21.8-3.8999 1.7-17.1 5.3999-17.2 1.7999 0.9999-11.9 12.7-20.7 23.7-25.399zm-31.299 38.899c1.0999 0.1 2.1998 0.1 3.4999 0.3 0.2 0.9 0.6 1.9 0.5 2.7-0.3 7.6999 0.2 6.4999-8.8999 4.4999-2.9999-0.7-5.3999-0.8-8.1997-1.5-11.8-3.0999-9.4999 4.4999-2.4 15.7 1.8 2.9 3.9999 6.1999 7.2999 9.2998 0.4-1.1-3.7-4.7-4.9999-11.4-0.2-1.3 0.4-1.8 0.6-2.6 1.3999-2.7999 8.0997-1.4999 15.9 3.4999v29.599c-9.7998-8.4999-35.799-36.799-34.799-50.199 1.7998-6.4998 18.8-0.7999 31.499 0.1001zm7.1997 53.099v-30.099c27.8 16.6 24.8 50.799 0 30.099z" stroke-width=".0429"/> <path d="m2352.4 323.36c-8.8997 7.3998-17.899 7.3998-25-2.9-6.9998-10.1-2.2998-39.999 18-40.199 2.8999 1.2 5.8997 2.7999 7.8997 6.7998 1.2 1.8 2.6001 3.7 3 6.7999 3.8 18.1-2 100.6 1.1001 104.8 15 0.9 22.8-41.599 16.4-66.699-0.8-2.9999-2-5.1999-2.8-8.1999 0.1001-0.4 0.3999-1.1 0.5-1.5 4.5999 7.7998 11.7 33.899 9.7998 56.099-2.3999 28.5-18.8 48.399-23.7 73.198-2.3 11.8-1.3 22.2-4.3 20.8-2.8-12 2.2998-151.9-0.9001-149zm24.7 53.299c-1 2.7-1.3 5.7999-2 8.6998-1.2998 5.5999-6.6997 17.6-10.8 22.3-0.8 0.8-1.3999 2-2 3.2999 5.4999 1e-4 16.3-21.2 14.8-34.299z" stroke-width=".0429"/> <path d="m2003.6 517.05c-2 3.5999-0.9 6.7999-1.1 10.1 0 0.1 0.3 31.199 0.4 31.399 0.1 1.0999-0.4 21.8-0.4 22.1-3.7999 2.1-7.5999 4.0999-11.5 6.8999-7.6998 5.6999-22.8 21.2-19.7 30.199 3.9 11.3 28.899-15.1 33.999-27.7 2.6998-9.6998 1.0999-13.6 1.2999-22.3 0-0.2-0.4-18.8-0.1-21.4 13.1-7.1999 24.6-3.9 19 9.9998-0.4 2.3-3.3999 5.6999-4.0999 8.1999 3.6998-3.9999 11.6-18.5 11.8-25.3 0.2-7.2999-15.1-5.9999-23.1-12.3-2.8-2.2-3.5-5.7999-4.3999-9.1998-0.1999-0.8001-1-0.9001-2.1-0.7001zm24.7 23.9c-1.9 0.4-0.3-2.7-11.9-2.5999-1.3 0-3.1 0.5-4-0.1 4.7-2.2999 17.2-2 15.9 2.6999z" stroke-width=".0429"/> <path d="m2109.5 483.15c2.7-2.4 0.8-1.4 1.2-1.9 0.1001-2.3 0.2-2.1 0-2.1-0.3999 0-0.8999-0.1-3-0.1-2.1997 0.2-1.3 0.5-1.3997 0.7 0 0.9 0.2998 4.1999-0.8999 5.5999-8.5 5.5999-31.899 20.2-38.199 29.299-3.8 6.6999 4.6997 1.7 10.8-3.2999 12-9.8997 20.699-18.6 31.499-28.199zm-8.8997 6.7999c-45.799 39.899-23.399 14.6 1.3999-1.5 1.3999-0.9-0.1999 0.5-1.3999 1.5z" stroke-width=".0429"/> <path d="m2172.8 469.95c0.2-10.9 0.3999-21.9-0.2-32.499-10.3 8.0998-16 12.1-28 17.7-5.2998 1.7 8.2-11.4 12.6-15.4 4.2-3.7999 12.6-11.4 18.2-11.3 2.3 2.2 0.6001 3.0999 0.8 36.699 0 1.6-0.1001 3.2999 0.2 4.8999-0.1001 1.1-0.3999 2.3-0.6001 3.3999-0.8999-0.1-2 0-2.5-0.4-1-0.8-0.5999-1.9999-0.5-3.0999z" stroke-width=".0429"/> <path d="m2425.9 296.96c-5.7998 3.2999-12 3.8999-17.3 0.3-19.9-13.7-16.8-60.599 5.7998-54.199 4.8999 1.1 8.7998 7.2999 12 14.3 2.5 5.3999 3.3 13.6 3.6001 21.4 0.3 7.5999-0.6001 119.3 0 132 6.6997-9.8998 14-19 19-33.299 7.2-25.9 0.6001-66.699-2.1997-74.698-0.5-1.5-0.8-3.2999-0.8-5.2999 0.3999 0.6 1.3 1.8999 1.6997 2.4999 11.7 34.899 10.4 58.699 6.1001 79.798-6.7998 25-9.0999 27.799-12.3 36.499-1.8 3.7999-3 8.6998-4.7 12.6-7.8997 18.8-6.1997 45.799-9.1997 41.899-3.3003-7.5998 0.1997-68.699-1.7002-173.8z" stroke-width=".0504"/> <g fill="none" stroke-width="2.2857"> <path d="m1666.8 488.95s51.299 19.4 130.2 30.199c38.899 5.2999 84.798 7.4999 133.5 2.7 194.2-19.1 387.89-146.8 569.69-139.5"/> <path d="m1666.8 499.05c308.79 201.8 471.69-83.298 703.09-184 52.899-23 103.1-30.699 130.2-29.399"/> <path d="m1666.8 509.25c16.4 16.2 49.899 43.999 76.899 61.799 57.899 38.099 120 56.399 186.8 36.699 188.7-55.599 342.79-378.49 533.89-415.19 22.6-4.2999 35.799-3.3999 35.799-3.3999"/> <path d="m1666.8 519.35c16.1 21.2 49.699 58.599 76.899 82.398 33.199 29.099 72.399 54.299 116.4 59.099 223.4 24.1 389.89-508.89 604.19-563.69 22.399-5.6999 35.799-4.5999 35.799-4.5999"/> </g> <path d="m3075.1 532.95c-0.8999 3.4-4 68.799-5.1001 76.198-0.3 1.7999-0.5 3.7-0.3 5.6999-2.1997-0.6-18.399-9.8998-28.899-1.7-5.3 4.1999-1.7 14.1 3.5999 18.1 8 6.1999 18.6 8.6998 25.899 0.9999 3.1001-4.3999 3.6001-16.3 3.3-21.5 0-0.2 3.6001-60.199 3.6001-60.399 0.2 0 36.499 4.4 54.499 2.7 0.7 2.9-3.3997 60.699-4.1997 70.099-3.5-0.1-4.8999-1.9-15-0.1-26.899 8.4999-17.3 37.199 6.3997 27.299 18.3-10.7 9.8999-20.2 16.6-101.6 0-4.7 1.3-9.3998 0.2-14-2.8-0.4999-19.2 0.3-25.3-0.2-2.5-0.2-4.8999-0.4-7.3997-0.1-25.5-1.3998-25.2-2.0998-27.9-1.4998zm56.499 13.2c0.6001 0.7 0.3999 1.7999 0.6001 2.5999-7.2998 1.0999-37.199-0.5-54.599-2.4999-0.1001-0.8-0.2-1.5-0.3-2.3 1.5 0 32.499 3.6999 54.299 2.2z" stroke-width=".0429"/> <path d="m2677.7 452.25c-7.2-0.7-4.7 0.8-7-23.8-0.5-18.4-8.1997-114.1-8.1997-114.3-6.3-1.2-5.8999-0.3-12.5-5.8999-5.7-5.5999-10.9-14.5-14.7-24.8-1.3-3.7-2.1001-7.6999-3-11.7-0.6001-2.7-0.3-5.2999-0.3999-7.7998-0.2-5.4999 1.3-9.7998 3.6001-11.7 11.9-0.6 21.7 20.8 26 31.899 6.3997 16.3 4.3999 46.999 9.6997 102.8 0.1001 6.5999 2.3999 35.099 2.7 37.399 4.7 1.9-5.3-1.8 46.799 11.1 1.8 0.2 3.6001 1.1 5.3 0.9-0.1001-0.9-8-84.998-8-85.398-3.4998-1-7.2998-3.8999-10.9-6.6999-7.9998-7.2998-15.5-19.9-19-33.399-2.5-9.4998-0.3999-22.2 6.9998-15.9 5.5 3.7 12.7 12.8 17.7 22.8 10.1 20.1 7.2998 21 13 81.798 0 0.2 3.2998 37.999 3.2998 38.199 3.6001 0.5 50.899 13.5 52.399 13.4-0.3-1.1-7.8997-58.199-8.0999-59.199-14.6-6.8998-28.2-27.999-29.8-37.899-0.3999-2.7999-1.3-5.9999-0.8-7.8998 1.6001-5.8999 5.7-3.0999 9.9998 1.4 6.8 6.9998 14.4 16.5 20.7 30.099 3.0999 6.5999 3.8997 18.5 4.3997 23.2 1.8 17.5 8.8999 64.199 8.3 65.099-6.8001-0.2001-80.599-10.9-108.5-13.7zm104.2 4.0999c-0.1001-0.4-0.3-1.2-0.3999-1.6-5.2998-1.6-50.999-12-52.099-12.1 0.1001 0.9 0.3 1.9 0.3999 2.7999 1.9002 0.1002 50.099 10.9 52.099 10.9zm-55.299-12.1c-0.1001-0.6-0.3-1.8-0.3999-2.3999-1.7-0.7-50.399-10.5-51.799-11.1-0.2 1.2-0.1001 2.4999 0 3.7999 0.3001 0.1 50.399 9.6998 52.199 9.6998z" stroke-width=".0429"/> <path d="m2592.2 464.65c-21-15.1-28.8-62.099-29.7-88.298-1-28.799 0.8-34.399-0.7-41.699-2.3-5.7999-39.999-52.799-45.099-118.4-2.2-28.099 2.3-92.898 28-104.4 3.1997-2.1 6.7998-1.5 10.2-1.9 2.4998 0.2 5.0999 1.7 7.5999 2.6999-0.3-26.6 0.3-84.098-18.2-101-3.8999-3.5999-8.3999-5.1999-11.9-1.8 0 1.2 0.1001 2.4 0.1001 3.5999 2.4998 1 4.6997 4.5999 6.7998 7.5998 7.3997 11.7 7.1997 24.3 6.8997 32.999-1.5999 15.3-12.3 22.3-21.7 10.1-13.4-17.5-7.4998-84.598 21.8-57.899 20.4 22.4 19.9 78.598 19.9 108.8 28.799 25.2 42.299 109 21 135.8-3.5 3.8999-7.5999 5.5999-11.7 6.6999-2.8999 1.4-5.8999 1.4-8.7998 1.8 0 14.1-0.2 28.199 0 42.399 22.8 41.399 31.799 56.099 36.199 102.8 0.6001 19.8-1.3 42.699-3 51.999-1.4001 5.9-2.6003 11.2-7.6999 8.1zm4.3997-18.5c1-2.7999 0.8-6.2999 1.2-9.4998 1.5-34.699-9.6997-62.199-28.399-90.998-0.8997-1.8-2.9998-1.8-2.9998 1.2 0.3998 48.999 19.199 93.198 30.199 99.298zm-37.899-157.1c1.1001 1.9 2.2 3.9999 3.5 5.5999 0.2-2.7 0.6001-5.2999 0.5-8.0998-0.3-28.5-0.3999-21.2-8.8997-35.199-3-4.8999-5.3999-11-8.2-16.3-17-31.899-3.6997-83.498 4.8999-82.798 0.3999 5.5999-3.7 4.4999-5 26.7-0.2 4.2999 0.3 8.6998 0.6001 13 1.2 16.2 8.2 31.199 15.9 33.699v-100.7c-4.8-2.8999-9.6997-2.3999-14.4-1.6-20.2 9.6998-21 50.499-20.399 72.898 1.2999 45.499 19.499 72.399 31.499 92.798zm18.4-65.099c14.8-14.1 9.4998-83.398-11.2-96.098v98.898c3.9998 1.8 7.8997 0.4 11.2-2.7999z" stroke-width=".0429"/> <path d="m3186.9 562.25c-0.3 3.0999-6.2-1.2999-17.8 6.5999-6.7998 5.1999-13.4 13.3-10.8 21.5 3.8999 12.3 22.399 2.4999 28.399-7.5998 1.2-1.7 2.6001-3.4999 3-5.4 1.9998-6.2999 1.2998-17.2 0.8-23.9 0-0.2-0.6001-29.499-0.3-31.599 1.8997-1.8 8.8997-1.8 12.6 1.7999 5.3 3.5999 9.5 14.1 4.5 25.7-0.8 1.7999-2 3.3999-2.8 5.1999 0.1001 0.1 0.3999 0.3 0.5 0.5 4.7-5.9999 11.6-21.2 9.8-30.199-2.1001-11.1-18.1-18.3-23.7-31.599-2.2998-6.7999-1.4998-11.7-4.2998-10.9-1.8999 4.2999 0.7002 74.499 0.1001 79.898zm20.7-42.899c1.7 1.4 2.3999 3.4 3 5.4 0.2 0.7 0 1.4-0.2 2.0999-1-1-1.3-2.4-2-3.4999-1.3-2.0999-6.7998-6.8999-10.8-8.2998-0.8-0.2-1.3999-0.7-2-1.3 4.6001-1.0001 9.9998 4.0998 12 5.5998z" stroke-width=".0429"/> <path d="m2836.8 458.35c-2-2.4999-0.8999-3.8999-1.1001-5.7999-0.2-1.4 0.3-2.4 0.1001-3.7999-0.3-1.2 0.1001-1.9999 0.1001-3.0999-0.1001-2.2 0-4.2999 0.1001-6.2999-0.2-1.3-0.2-2.5999 0-3.5999 0.1001-0.9-0.2-2.3-0.1001-3.2999 0.3-2.5999-0.3-5.9999-0.3-8.8998-9.3-9.9998-19.2-20.4-27.8-37.099-3-5.7999-4.3999-10.7-3.3-12.2 4.1001-5.0999 31.2 40.699 33.999 46.699 3.2 8.6999 0.8999 6.6999 1.3 12.5 0 0.7-0.3 1-0.2 1.9 0.3 1.5-0.3 7.1999 0.1001 8.9998 4.3 3.4999 8.8 6.7999 14.1 9.4998 6.3999 3.2999 7.8997 3.2 4.8999-1.7-0.3999-1.1-3.3999-4.6999-4.1001-6.1999 1 1.3 1.8999 2.3999 2.6001 3.2999 10.2 14.5 11.9 15.7 5.4998 12.8-5.2998-2.3999-13.8-6.2998-19.399-6.3998-2.7 0-3.5 1.6-4.3999 3.0999-0.2003 0.2-1.0004 0.1-2.1002-0.4zm24.7 0.9c-2.3-1.6 3.0999 2-11.9-5.8999-1.2998-0.7-2.9998-1.8-3.9998-2 2.1997 1.5 17.199 10.1 15.9 7.8999z" stroke-width=".0429"/> <path d="m2942.8 522.15c2.6001-0.8 0.8999-9.1998 1.2-12.2 0.1001-29.699 0.2-27.2 0-28.1-0.3999-0.7-0.8999-1.7-3-1.7-2.2 1.1-1.3 2.5999-1.3999 3.8999 0 2.9999 0.3999 27-0.8999 29.599-10.4-7.0999-37.999-22.7-38.199-22.8-0.8-0.3-1.5-0.6-0.7 0.2 2.5998 3.5 32.899 32.299 42.999 31.1zm-8.8997-6.8999c-8.3999-3.4999-21.9-13.8-26.3-18.1-0.3-0.6-1.3-1.2 5.8997 3.2 7.3001 4.4999 29.3 17.8 20.4 14.9z" stroke-width=".0429"/> <path d="m3005.9 547.35c-8.7-4.3999-13.2-6.8999-23-7.0998-1.8999 0.2999-3.5 0.9-5.1001 1.4-7.1997 5.3999 19.6 28.4 30.799 17.9 2.3-5.5999 0.6001-5.9999 0.8-59.199 0-2.5999-0.1001-5.1999 0.2-7.7998-0.1001-1.7999-0.3999-3.5999-0.6001-5.3999-0.8999 0.2-1.9998 0.2-2.4998 0.9-1.6998 2.8997 1.1002 5.3997-0.5998 59.299z" stroke-width=".0429"/> <path d="m3259.6 485.85c0.1001 4.7999 0.3999 36.999-0.3999 52.699-32.799 11.3-37.099 38.699-22.1 32.299 6.1997-2.7 14.8-9.0999 22.6-19.6 5.1997-7.0999 3.6001-13.7 3.5-21.9 0-1.9999-0.2-27.1 0.1001-28.999 12.2 3.2999 24 3.0999 22.3 12.1-1.8 9.8998-6.3999 13.7-6.3 15.3 3.6001-3.4 10.3-12.9 11-18.3 0.8-6.2999-10.2-9.7998-15.6-12.9-1.8-0.7-3-1.9-4.7-2.8999-2.3-1.3-3.7-3.2999-5.3-5.0999-1.6997-3.9999-1.8997-7.9998-3.8997-7.0999-1.4003 1.1999-1.1002 2.8999-1.2003 4.3999z" stroke-width=".0504"/> <g fill="none" stroke-width="2.2857"> <path d="m2500 382.26c181.7-7.2998 375.29 120.5 569.69 139.5 48.699 4.7999 94.598 2.5999 133.5-2.7 78.898-10.8 130.2-30.199 130.2-30.199"/> <path d="m2500 285.66c27.399-1.3 77.198 6.2999 130.2 29.399 231.2 100.7 394.39 385.79 703.09 184"/> <path d="m2500 189.06c15.4-1 46.399 3.3999 76.898 15.7 146.7 59.299 274.99 273.39 417.49 366.69 111 72.698 202.6 51.299 303.09-30.999 23.2-19 35.799-31.399 35.799-31.399"/> <path d="m2500 92.561s13.4-1.1 35.799 4.5999c178.4 45.699 324.69 423.99 496.69 534.29 80.299 51.499 151.1 34.199 223.9-29.7 26.6-23.3 60.199-60.499 76.898-82.398"/> </g> <path d="m3908.4 385.26c-0.5-3.5999-5.3999-148.5-5.3999-148.7-2.8-2.5-18.7-6.0999-28.899-40.999-4.8997-16.8-2.3997-32.799 3.6001-31.099 12.1 4.7999 21.899 27.399 25.899 41.999 3.2 11.6 3.6001 34.999 3.3 42.499 0 0.2 3.5999 107.5 3.5999 107.7 0.2 0.1 42.399 19.1 54.499 26.5 0.6001-2.9999-3.6001-83.198-4.2-94.398-1-0.9-19.899-12-29.299-45.999-2.3-8.2998-2.6001-16.8-0.2-20.5 4.0999-7.3998 17 13.1 20.899 20.5 11.6 21.9 12.1 34.399 12.6 46.199 0 0.2 4.3999 118.2 4.2 119.2-3-0.4-20.5-7.9998-25.3-9.4998-2.3999-0.8-4.8999-1.5-7.3999-2.8999-4.6997-1.6-9.3997-2.9999-14.1-5.0999-1.9001-1-10.6-2.7-13.8-5.3999zm56.599 6.6998c0.6001-0.7 0.3999-2.0999 0.6001-3.0999-3.5-2.2-35.699-17.2-45.299-21.1-3.1001-1.8999-6.2-2.7-9.3-3.9999-0.1001 1.2-0.2 2.4999-0.3 3.7 1.4999 0.9999 35.799 14.7 54.299 24.499z" stroke-width=".0429"/> <path d="m3612.4 449.25c-76.898 5.8999-103.1 11-105.4 10.5-2.5-1.1-1.5-5.3999-2.8999-15.1-0.3-6.8999-5.8-51.699-5.8999-53.099-0.6001-5.0999-1.7-9.7998-2.3-15-6.1997 6.1999-5.8997 6.1999-12.5 10.3-5.7998 3.0999-10.9 4.0999-14.7 3.5999-1.3-0.2-2.1001-1.1-3-1.7999-0.6001-0.4-0.3-1.9-0.3999-2.8999-0.6001-7.8998 17.6-29.499 29.6-26.4 2.7998 0.7 3.1997 4.9999 4.1997 8.3998 0 0 7.8 70.899 8.2 72.899 6.1997-0.8-4.3999 0.4 46.799-10.9 1.8-0.7 3.5999-0.5 5.2998-1.7-0.3999-2.8999-3-35.399-3-36.199-4.0999-52.899-2.8997-24.2-3.1997-35.599-0.2-6.3999-1.3-12.2-1.7-18.4-8.2998 9.2998-23.1 14.9-29.899 4.4999-2.5999-4.6999 0-17.8 7-24 12.1-12.8 22.6-8.8998 24.399-0.3 2.8999 13.3 9.4998 109.8 9.4998 110 4.3-1.5 42.999-8.3998 46.899-9.0998 1.8-0.2 3.7 0 5.5-1.4-0.2-1.2-7.6001-109-8.1001-112.6-13.9 15.7-28.399 4.1999-29.799-5.1999-0.3999-2.9999-1.3-5.8999-0.8-9.7998 1-7.3998 3.5-15.4 9.9998-19.2 4.3999-2.9999 8.9998-4.5999 12.7-2.8999 11.7 5.4999 11 20.1 12.4 46.099 2 37.299 9.0999 130.7 8.2998 134.5-2.6002 0.7998-4.9 0.2998-7.2001 0.7998zm2.8999-20.5c-0.1001-0.8-0.3-2.4999-0.3999-3.2999-5.6001 0-49.599 7.6999-52.099 8.3998 0.1001 1.1 0.3 2.2 0.3999 3.2999 3.1001-1 50.499-7.3998 52.099-8.3998zm-55.299 8.4998c-0.1001-0.7-0.3-2.1-0.3999-2.7-2.5-0.1-49.499 10.3-51.799 10.4-0.2 0.9-0.1001 1.8 0 2.7 0.2-0.1 50.299-9.6998 52.199-10.4z" stroke-width=".0429"/> <path d="m3425.5 475.45c-7.0999-0.7-33.599-4.5999-29.899-11.3 0-0.6 0.5-1.4-0.5-1.4-1.5 0.4-12.7 5.0999-22.899 11.2-27.5 16.6-28.1 28.799-11.8 10.1 9.5999-11 23.5-30.599 35.299-46.899-0.1001-0.7 0.1001-1.7-0.3-1.8 0.1001-1.3-1-0.9-1.7-0.8-4.6001 3.5999-11.7 15.7-16.2 23.1-28.699 47.599 3.3999-6.0999 1.8999-1-2.7 5.4999-16.5 24.8-21.7 32.299-7.3 10.6-8.5 13.9-4.6001 8.3998 13.3-18.9 40.899-72.299 45.299-68.599-0.1001 0.8 0.7 0.3 0.6001 1.2 0.3999 0.3 0.3999 1.3 0.3999 2.2999 5.5-7.2998 16.4-21.9 24.399-26.5 5.3-3.0999 8.6001-1.1 6.6001 5.8999-4.3 15.1-18.7 28.199-30.6 38.699 0 1.8-0.2 3.7999 0 5.4999 10.1-4.6999 28.1-11.6 34.399-2.4 3.5999 5.2999 1.0999 15.3-1.2 19.3-1.4 2.0002-2.6 3.2001-7.4999 2.7002zm5.5999-7.6999c2.8-17.2-31.2-8.5999-31.399-5.9999 0.7 3.2 5.8 4.4999 14.6 6.2999 18.999 3.8999 15.6 2.4 16.8-0.3zm-35.499-9.7998c0.2-0.5 0.6001-1 0.5-1.3 0-0.7 0.3-1.7-0.5-1.7-0.2-0.1-0.8999 0.2-2 0.9-22.2 14.9-28.899 24.7-17 9.6998 4.8-6.0999 10.2-12.9 5.6001-6.6999-4.6001 6.2998-3.3 4.9999-2.7 4.8999 1.3999-0.6 8.1997-6.0999 15.9-13.4v-11.4c-14.1 18.4-29.899 40.399-34.799 44.199-1.5998 0.7 8.5999-10.2 34.999-25.2zm19.7-41.199c-3.2 1.7-9.3997 8.4998-16.1 17.3v12.6c22.9-21.5 21.9-32.899 16.1-29.9z" stroke-width=".0429"/> <path d="m4019.4 469.65c0.1001-104.6 6.8999-55.299-16.899-86.198-5.2-6.7998-13.9-22-10.8-29.899 2.8999-9.1998 14.5 4.9999 20.5 12.6 11.5 17.3 13.5 22.5 11.7 42.899 0 0.2-0.6001 27.399-0.3 29.399 1.8 2.2 8.7998 3.7999 12.6 1.6 5.1001-1.7 9.3997-8.6998 4.5-20.3-0.8-1.8-2-3.6999-2.8-5.5999 0.1001 0 0.3999-0.1 0.5-0.2 3.6001 5.6999 11.7 21.4 9.7998 28.399-2.1001 8.1999-17.7 10.4-23.7 23-2.3 6.0999-1.3999 10.9-4.3 10.1-0.9003-1.8998-0.8002-3.8998-0.8002-5.7997zm21.5-24.7c1.7-0.7 2.3999-2.2 2.9998-3.7 0.2-0.5 0-1.2-0.2-1.8-0.9998 0.5-1.2998 1.6-1.9998 2.4-1.1001 1.2-6.8 4.1999-10.8 4.5999-0.8 0-1.3999 0.3-2 0.7 4.4998 1.7 10.1-1.4 12-2.1999z" stroke-width=".0429"/> <path d="m3670.1 367.86c-1.5-6.6999-1.2-147-1.2-181.2-3.7998 3.0999-7.5999 6.4999-11.5 7.1998-6.3997 1.6-12.1-2-16.399-8.9998-6.7-10.8-4.5-37.999 8.2998-47.099 4.8997-2.3 10.2-4.2999 14.1-0.3 3.3997 2.9999 6.5999 7.3998 8.1997 14.7 3.3999 26.4 0.5 62.199 1.1001 74.498 0.3 7.5999-0.3 42.199 0.1001 51.799 7.4998-0.7 11.5-8.1999 14.1-15.4 6.2998-17.4 7.9998-40.699 4.8997-59.199-0.3999-6.6999-3.3997-10.3-4.0999-16.7 1 0.8 1.8999 2.2 2.5999 4.0999 23 68.399-2.3997 97.798-13.8 140.2-5.8003 21.8-2.3003 35.599-6.4004 36.399zm24.8-116.7c-2 3.4999-0.8999 14.6-11.9 34.199-1.3 2.4-3 3.9999-4 7.2999 4.4-0.5001 17.5-24.5 15.9-41.499z" stroke-width=".0429"/> <path d="m3776.1 246.26c2.8 14 1.1001 54.299 1.2 68.599 0.3 39.899 0.3999 138.5 0 147.9-0.3999 3.5999-0.8999 8.5998-2.9998 8.6998-2.2-6.3999-1.3-14.6-1.3999-22 0-48.999-0.3999-162.6-0.8999-170.3-10.5 4.0999-22.2 1.2-30.7-12.5-2.9998-4.7999-5.9998-9.6998-7.4998-17.1-0.7-4.9999-1.3999-10.4-0.7-15.8 1.3-11.5 6.1997-20.3 11.5-20.8 17.4-3.1998 28.199 17.3 31.499 33.3zm-8.8997 3.7999c-5.3997-10.1-12.3-15.4-19.2-17.5-2.3999-0.3-5.2-0.8-7.1001 3.2999-1.1 20 36.999 39.799 26.3 14.2z" stroke-width=".0429"/> <path d="m3839.3 294.86c-2.8999-0.2-5.7998 0.1-8.7998-1.4-5.2-1.4-10.1-7.9998-14.2-15.6-1.8999-4.6999-3.5-9.9998-5.0999-15.2-2.2-10.6-0.8999-23.6 3.3997-29.099 2.8-2.2 6.1001-1.4 9.2 0.2 10.4 5.4999 15.399 21 18.2 32.399 1.8999 15 0.5 190.3 0.5 190.5-0.8999-0.7-2-1-2.5-2.8999-1.7996-7.7999 0.9003-11.2-0.6998-158.9z" stroke-width=".0429"/> <path d="m4093 475.35c0.1001-2.6 0.3999-17.9-0.3999-25.8-10.9-7.0999-20.5-14.6-27.599-25.7-7-10.9-2.8999-18.9 28.099 19.9 5.0002 6.2999 3.6003 7.5999 3.5002 12.1 0 1-0.2002 12.3 0.1001 13.2 17.7 1.1 29.999 7.6999 16.799-4.0999-0.5-0.5-0.7998-0.8-0.7998-0.9 0.3999 0.3 1.2998 1 1.7002 1.4 16 14.3 10.899 5.7999-10.9 7.5999-2.2998 0.2-3.7002 0.9-5.2993 1.5-1.7998 1.7-1.8999 3.4999-3.9001 3.0999-1.6009-0.7001-1.201-1.5-1.3008-2.3z" stroke-width=".0504"/> <g fill="none" stroke-width="2.2857"> <path d="m3333.3 488.95c214.5-70.699 344.99-142.6 569.69-86.698 80.798 20.1 141.2 46.299 263.69 86.698"/> <path d="m3333.3 499.05c77.198-46.699 172.1-127.8 263.69-173.4 107.3-53.399 198.6-53.399 305.99 0 91.798 45.699 186.3 126.6 263.69 173.4"/> <path d="m3333.3 509.25c77.398-70.299 172.2-191.8 263.69-260.09 107.2-79.998 198.5-80.198 305.99 0 92.198 68.799 185.3 188.9 263.69 260.09"/> <path d="m3333.3 519.35c156.7-189.8 298.99-511.79 494.39-405.39 122.1 66.499 235.6 280.29 338.89 405.39"/> </g> <path d="m4741.7 423.35c-0.2998-1-5.3999-79.598-5.3999-79.698-1.7002 1.8-17.2 22.6-28.899 24.3-11.6 1.7 16.7-44.099 29.399-42.099 3.3999 1.8 3.5 15.2 3.2998 18.9 0 0.2 3.6001 59.699 3.6001 59.899 0.2002-0.1 44.799-24.5 54.499-28.299 0.5-3.2999-2.7998-70.099-4.2002-92.498-3.2998 3.3999-4.8999 7.3999-15 14.5-27 14.3-16.7-27.7 6.3994-41.399 3.6001-1.3 6.8999-0.9 9.3999 1.1 2.7002 3.5999 3 11.1 3.2998 17.9 0 0.2 4.5 122.2 4.2002 124.1-0.4994 0.2001-60.398 23.2-60.599 23.3zm10.4-16.2c53.498-26.7 45.699-18.3 46.799-25.2-5 1.5-48.999 23.8-54.599 26.7-0.1001 0.8-0.2002 1.5999-0.2998 2.3999 2.6997-0.8001 5.3999-2.8 8.1001-3.8999z" stroke-width=".0429"/> <path d="m4445.7 494.05c-78.699 3.8999-102.3 1.1-105.4 1.9-2.5 1.2-1.5 4.8999-2.8999 14-0.5 9.4998-8.2002 66.099-8.2002 66.299-6.3999-2.5999-5.6001-2.7999-12.5-3.2-5.7002 0.1-10.9 1.9-14.7 4.9999-1.2998 1.1-2.1001 2.7-3 4.0999-0.6001 0.9999-0.2998 2.4-0.3999 3.5999-0.2002 2.5999 1.3999 5.7999 3.6001 8.2998 8.6001 6.0999 17.899 6.5999 26-0.6 2.7998-2.4999 3.2002-6.6999 4.2002-10.5 0 0 7.3999-66.399 8.2002-69.799 4.5996-0.2999 14.6 1 46.799 0.4 1.7998 0.2 3.5996-0.3 5.2993 0.3-0.5 2.7-2.9995 25.5-2.9995 25.7-4.1001 37.799-2.8999 18.8-3.2002 26.2-0.2002 4.7-1.2998 9.1998-1.7002 13.9-10.4-2.9999-24.399 2.0999-29.899 12.9-2.7002 5.4 0 14.8 7 15.3 4.6997 0.9 12-0.3 17.7-5.2999 11.6-10.5 7.2998-19.6 13-58.499 0.3999-4.5999 0.7002-9.0998 1.5-13.6 0.5-2.2999 0.2998-4.5999 0.7002-6.7999 0.1001-3.4 1.2002-6.7999 1.1001-10.2 8.6001 0.5 51.299-3.3999 52.399-3.1999-0.7998 2.7999-4.6001 38.099-5.7998 45.499-0.2002 2.4-1.1001 4.7999-1.1001 7.1999-0.6001 2.9-0.5 5.7999-1.2002 8.7998-14.6-0.9999-28.399 12.5-29.799 19.6-0.3999 2.2-1.2998 4.4999-0.7998 6.5999 1.3999 5.2999 4.6001 6.9998 9.9995 5.2999 9.2002-2.2999 16.2-8.7998 20.7-16.2 3.2998-5.2999 2.8999-10.6 10.7-73.198 0.1001-3.0999 1.1001-6.1999 1.1001-9.3998 0-2.3 2.1001-7.8998 0.8999-10.4-2.7006-0.4001-5.0004-1e-4 -7.3007-1e-4zm2.9004 9.9998c-0.1001 0.4-0.2998 1.3-0.3999 1.7-7 1.1-46.499 3.3999-52.099 3.2 0.1001-0.8 0.2998-1.5 0.3999-2.3 4.2998 0.4999 51.099-2.7 52.099-2.6zm-55.299 3.0999c-0.1001 0.5-0.2998 1.4-0.3999 1.9-5.2993 0.9-50.499-0.2-51.798-0.1-0.2002-0.8-0.1001-1.6 0-2.4 1.3994-0.1 15.899 0.6 19.399 0.3 5.2998 0.6 29-0.2 32.799 0.3z" stroke-width=".0429"/> <path d="m4258.8 484.15c-12.4 2.5999-27.299 11.7-29.7 24.8-0.2002 2.5999-0.8999 4.9999-0.2002 7.7998 0 1.5 0.5 3.2-0.5 4.2-1.7998 0.6-17.799-0.4-22.899-0.8-16.899-1.2999-20-2.9-22.2-0.1-2.7998 3.4999 8 20.3 10.4 24.1 7.5996 11.7 20.7 28.4 35.299 42.399-0.1001 1.9 0.1001 4.0999-0.2998 5.4999 0.1001 3.2-1.6001 9.6998-5 9.1998-6.9995-0.1-21-20.3-24.899-26.4 0.1001-1.4999-0.7998-0.7 6.8999 7.1999 3.2998 3.4 6.1001 5.0999 6.8999 4.0999 0.1001-0.7999 0.1001-1.7 0-2.7999-3-10.9-37.5-49.899-26.299-27.299 5.6001 11.2 36.699 61.699 44.699 47.299 0.2998-2.7 1.5-6.0999 1.5-13.7 4.1001 3.2 8.2002 6.0999 11.9 7.6999 14 6.0999 22-4.0999 19.1-16.3-4-16.9-16-25.2-30.6-35.199 0-4.2999-0.2002-8.6998 0-13 14.399-0.6 29.1-3.5999 34.399-17 3.4995-8.7998 1.2002-22.3-1.2002-28.2-1.2993-3-2.6992-4.4-7.2993-3.5zm-2.1001 9.5998c8.6001-3.7 6.6001-2 7.7002 1.7999 1.1001 10.5-4.6001 17.6-14.2 21.8-3.8999 1.7-17.1 5.3999-17.2 1.7999 1.0005-11.9 12.7-20.7 23.7-25.399zm-31.299 38.899c1.1001 0.1 2.2002 0.1 3.5 0.3 0.2002 0.9 0.6001 1.9 0.5 2.7-0.2998 7.6999 0.2002 6.4999-8.8999 4.4999-2.9995-0.7-5.3994-0.8-8.1997-1.5-11.8-3.0999-9.5 4.4999-2.3999 15.7 1.7998 2.9 4 6.1999 7.2998 9.2998 0.3999-1.1-3.7002-4.7-5-11.4-0.2002-1.3 0.3999-1.8 0.6001-2.6 1.3999-2.7999 8.0996-1.4999 15.899 3.4999v29.599c-9.7993-8.4999-35.799-36.799-34.799-50.199 1.7993-6.4998 18.799-0.7999 31.499 0.1001zm7.2002 53.099v-30.099c27.799 16.6 24.799 50.799 0 30.099z" stroke-width=".0429"/> <path d="m4852.4 323.36c-8.8999 7.3998-17.9 7.3998-25-2.9-7-10.1-2.2998-39.999 18-40.199 2.8999 1.2 5.8999 2.7999 7.8999 6.7998 1.1997 1.8 2.5996 3.7 2.9995 6.7999 3.7998 18.1-2 100.6 1.1001 104.8 15.2 0.9 22.7-42.099 16.4-66.699-0.7998-2.9999-2-5.1999-2.7998-8.1999 0.1001-0.4 0.3999-1.1 0.5-1.5 4.6001 7.7998 11.7 33.899 9.7993 56.099-2.3999 28.5-18.799 48.399-23.7 73.198-2.2998 11.8-1.3999 22.2-4.2993 20.8-2.7998-12 2.2998-151.9-0.8999-149zm24.7 53.299c-1 2.7-1.2998 5.7999-2 8.6998-1.2998 5.5999-6.7002 17.6-10.8 22.3-0.7998 0.8-1.3999 2-2 3.2999 5.6997 1e-4 16.299-21.7 14.8-34.299z" stroke-width=".0429"/> <path d="m4503.5 517.05c-2 3.5999-0.8999 6.7999-1.1001 10.1 0 0.1 0.2998 31.199 0.3999 31.399 0.1001 1.0999-0.3999 21.8-0.3999 22.1-3.7998 2.1-7.6001 4.0999-11.5 6.8999-7.6997 5.6999-22.799 21.2-19.7 30.199 3.8999 11.3 28.899-15.1 34-27.7 2.7002-9.6998 1.1001-13.6 1.2998-22.3 0-0.2-0.3999-18.9-0.1001-21.4 13.2-7.1999 24.6-3.7999 19 9.9998-0.3999 2.3-3.3999 5.6999-4.1001 8.1999 3.7002-3.9999 11.6-18.4 11.8-25.3 0.2002-7.2999-15.1-5.9999-23.1-12.3-2.7998-2.2-3.5-5.7999-4.3999-9.1998-0.1992-0.8001-0.999-0.9001-2.0991-0.7001zm24.699 23.9c-1.8999 0.4-0.2998-2.7-11.9-2.5999-1.2998 0-3.1001 0.5-3.9995-0.1 4.6997-2.2999 17.2-2 15.899 2.6999z" stroke-width=".0429"/> <path d="m4609.4 483.15c2.6997-2.4 0.7993-1.4 1.1997-1.9 0.1001-2.3 0.2002-2.1 0-2.1-0.3999 0-0.8994-0.1-2.9995-0.1-2.2002 0.2-1.2998 0.5-1.3999 0.7 0 0.9 0.2998 4.1999-0.8999 5.5999-8.5 5.5999-31.899 20.2-38.2 29.299-3.7998 6.6999 4.7002 1.7 10.8-3.2999 12-9.8997 20.7-18.6 31.5-28.199zm-8.8999 6.7999c-45.799 39.799-23.5 14.7 1.3999-1.5 1.3999-0.9-0.2002 0.5-1.3999 1.5z" stroke-width=".0429"/> <path d="m4672.8 469.95c0.2002-10.9 0.3999-21.9-0.2002-32.499-10.3 8.0998-16 12.1-28 17.7-5.2998 1.7 8.2002-11.4 12.6-15.4 4.1997-3.7999 12.6-11.4 18.2-11.3 2.2998 2.2 0.6001 3.0999 0.7998 36.699 0 1.6-0.1001 3.2999 0.2002 4.8999-0.1001 1.1-0.3999 2.3-0.6001 3.3999-0.8999-0.1-2 0-2.5-0.4-1-0.8-0.6001-1.9999-0.5-3.0999z" stroke-width=".0429"/> <path d="m4925.9 296.96c-5.7998 3.2999-12 3.8999-17.3 0.3-19.899-13.7-16.799-60.599 5.7998-54.199 4.8999 1.1 8.7998 7.2999 12 14.3 2.4995 5.3999 3.2993 13.6 3.5996 21.4 0.2998 7.5999-0.6001 119.3 0 132 6.7002-9.8998 14-19 19-33.299 7.1997-25.9 0.6001-66.699-2.2002-74.698-0.5-1.5-0.7998-3.2999-0.7998-5.2999 0.3999 0.6 1.2998 1.8999 1.7002 2.4999 11.7 34.899 10.399 58.699 6.0996 79.798-6.7993 25-9.0996 27.799-12.299 36.499-1.7998 3.7999-3 8.6998-4.7002 12.6-7.8999 18.8-6.2002 45.799-9.2002 41.899-3.1997-7.5998 0.1997-68.399-1.6997-173.8z" stroke-width=".0504"/> <g fill="none" stroke-width="2.2857"> <path d="m4166.7 488.95s51.299 19.4 130.2 30.199c38.899 5.2999 84.798 7.4999 133.5 2.7 194.2-19.1 387.89-146.8 569.69-139.5"/> <path d="m4166.7 499.05c308.79 201.8 471.69-83.298 703.09-184 52.899-23 103.1-30.699 130.2-29.399"/> <path d="m4166.7 509.25c16.399 16.2 49.899 43.999 76.898 61.799 57.898 38.099 120 56.399 186.8 36.699 188.7-55.599 342.79-378.49 533.89-415.19 22.6-4.2999 35.799-3.3999 35.799-3.3999"/> <path d="m4166.7 519.35c16.1 21.2 49.699 58.599 76.898 82.398 33.199 29.099 72.398 54.299 116.4 59.099 223.4 24.1 389.89-508.89 604.19-563.69 22.399-5.6999 35.799-4.5999 35.799-4.5999"/> </g> </g> </svg>