<?xml version="1.0" encoding="utf-8"?>
<svg  version="1.1" id="Layer_1" xmlns="http://www.w3.org/2000/svg" xmlns:xlink="http://www.w3.org/1999/xlink" x="0px" y="0px"
	 viewBox="0 0 5130.352 601.592" enable-background="new 0 0 5130.352 601.592" xml:space="preserve">
<g>
	<path id="path9280_5_" d="M5010.46,423.957c-21.604-10.234-42.92-33.859-48.761-48.674c-2.262-5.77-1.648-9.411,1.08-11.218
		c23.852,22.279,47.09,44.347,71.717,62.354C5029.5,429.222,5020.938,428.905,5010.46,423.957z M4989.505,369.23
		c20.772,9.786,43.002,26.445,48.791,41.169c1.166,2.953,1.393,5.537,1.178,7.895c-22.827-15.553-44.524-34.869-66.563-54.851
		C4977.486,364.32,4982.962,366.144,4989.505,369.23z M5078.71,439.836c-10.063-4.045-19.991-9.267-29.768-15.342
		c0-0.467,0.068-0.902,0.056-1.359c0.072,0.047,0.144,0.093,0.215,0.139c-2.781-86.281-5.572-171.855-8.376-256.692
		c-3.618-0.902-7.232-1.852-10.843-2.843c2.575,76.396,5.137,153.476,7.689,231.22c-13.478-18.99-36.215-36.498-56.479-45.263
		c-12.525-5.417-21.653-6.262-26.81-3.055c-9.856-8.889-19.698-17.609-29.669-25.895c0.126,3.069,0.253,6.14,0.38,9.213
		c8.543,7.318,16.992,14.962,25.442,22.762c-0.99,4.175-0.252,9.888,2.915,17.517c10.347,24.786,38.299,59.761,64.513,70.854
		c14.148,5.917,24.478,2.196,28.688-6.228c10.638,6.972,21.458,12.937,32.45,17.46
		C5078.979,448.16,5078.845,443.998,5078.71,439.836"/>
	<path id="path9280_3_" d="M1733.575,244.135c-21.112-6.147-42.893-19.398-48.761-29.86c-2.258-4.054-1.658-7.297,1.08-9.681
		c24.33,11.127,47.888,25.582,71.717,40.3C1752.588,247.322,1744.174,247.211,1733.575,244.135z M1712.62,201.831
		c21.155,3.853,43.051,16.899,48.791,29.371c1.167,2.526,1.393,4.741,1.178,6.758c-22.161-13.101-44.065-26.191-66.563-36.903
		C1700.61,200.519,1706.112,200.644,1712.62,201.831z M1801.826,260.435c-9.969-5.371-19.865-11.063-29.768-16.87
		c0-0.403,0.068-0.775,0.056-1.171c0.072,0.044,0.143,0.087,0.215,0.131c-2.773-74.461-5.564-147.889-8.376-220.282
		c-3.614-0.11-7.229-0.224-10.843-0.338c2.58,64.495,5.143,129.863,7.689,196.105c-13.218-15.699-35.915-28.144-56.48-30.516
		c-12.428-1.431-21.687,0.946-26.81,5.397c-9.815-3.951-19.714-7.299-29.67-9.851c0.127,2.565,0.254,5.132,0.38,7.699
		c8.533,2.307,17.021,5.219,25.442,8.612c-0.991,3.862-0.246,8.36,2.915,13.566c10.424,17.056,39.031,37.541,64.513,44.968
		c14.36,4.13,24.472,1.573,28.688-5.487c10.794,6.632,21.574,13.144,32.45,19.259
		C1802.094,267.914,1801.96,264.173,1801.826,260.435"/>
	<path id="path9392_5_" d="M3485.9,131.605c3.443-12.796-14.113-22.714-39.142-19.193c-25.187,3.563-48.308,20.968-51.788,37.24
		c-3.506,16.575,13.827,22.44,39.142,15.181C3458.982,157.69,3482.355,144.522,3485.9,131.605z M3394.514,161.434
		c0,0-11.955-44.441,63.388-59.875c39.914-8.132,83.323,17.379,82.164,51.039c-1.246,33.622-66.591,63.04-183.479,218.881
		c0,0,165.819-132.009,219.401-207.024c61.261-86.578-221.617-88.981-181.477-3.02"/>
	<path id="path9392_1_" d="M1356.018,198.634c3.449-20.428-14.054-34.472-39.142-35.724c-25.18-1.237-48.268,10.891-51.788,31.279
		c-3.466,20.318,13.895,42.706,39.142,44.138C1329.298,239.714,1352.481,219.183,1356.018,198.634z M1264.632,210.021
		c0,0-10.017-51.144,63.388-61.524c40.63-5.722,83.32,15.772,82.164,65.62c-1.249,50.117-25.726,221.754-183.479,222.948
		c0,0,162.77-82.06,219.401-233.762c51.726-139.338-217.978-124.216-181.477,6.716"/>
	<path d="M3853.61,173.168c-3.636-9.515-8.609-18.443-14.727-26.823c-6.433-8.804-13.589-17.165-20.347-25.886
		c-12.537-16.185-23.278-33.408-32.673-51.203c-4.295-8.186-8.28-16.431-12.009-24.699c-0.127-0.28-0.282-0.549-0.396-0.83
		c-0.53-1.313-1.1-2.61-1.708-3.892c-0.209-0.441-0.414-0.886-0.639-1.319c-0.227-0.436-0.487-0.868-0.685-1.314
		c-0.269-0.516-0.574-1.029-0.789-1.563c-0.019-0.048-0.14-0.456-0.168-0.462c-0.089,0.064-0.067,0.224-0.071,0.514
		c-0.004,0.37-0.009,0.74-0.013,1.11c-0.062,5.664-0.021,11.336-0.021,17.003c0,47.466,0,94.931,0,142.397
		c-0.013,25.001,0.029,50.024-0.021,75.013c-4.838-4.387-11.183-7.991-16.539-10.908c-5.984-3.259-12.024-5.894-17.864-7.811
		c-19.065-6.25-36.072-5.098-45.041,2.895c-1.8,1.607-3.112,3.682-4.17,5.966c-2.077,4.488-2.684,10.254,2.919,19.179
		c4.841,7.702,12.1,15.02,18.934,21.024c12.54,11.012,26.015,19.068,37.705,21.274c16.167,3.034,28.036-6.169,32.263-20.897
		c2.546-8.901,2.019-19.325,2.013-29.434c-0.006-10.592,0.003-21.178,0.002-31.768c-0.002-42.959,0-85.917-0.002-128.873
		c0.003,0.217,2.622,1.535,2.931,1.714c16.395,9.503,32.616,20.078,45.129,34.276c4.428,5.028,8.344,10.47,11.49,16.301
		c3.226,5.984,5.62,12.373,7.065,18.97c3.487,15.953,2.243,32.714-1.59,48.63c-3.822,15.847-10.102,30.781-16.853,45.116
		c17.678-17.879,29.289-44.199,30.584-70.206c0.434-8.814,0.243-18.086-2.301-26.469
		C3855.294,177.816,3854.49,175.474,3853.61,173.168z"/>
	<path fill="#020202" d="M4280.85,107.663c-9.195,53.08-18.645,103.627-28.254,151.925c-11.999-17.003-42.447-29.86-66.762-22.956
		c-25.824,7.373-35.341,26.625-23.611,35.166c12.372,8.964,42.201,12.513,67.191,14.554c13.804,1.118,22.148-1.615,26.825-6.36
		c4.773-4.856,7.669-12.566,7.669-12.566c7.713-39.169,15.302-79.906,22.731-122.342c52.137,20.313,102.456,45.828,155.135,55.564
		c-7.465,61.287-14.968,121.315-22.599,179.895c-12.373-21.034-42.22-35.739-66.84-39.844c-25.34-4.2-35.474,6.916-23.612,30.77
		c12.18,24.43,41.897,53.303,67.192,54.363c13.744,0.551,22.193-8.032,26.824-17.093c4.816-9.44,7.669-22.181,7.669-22.181
		c7.664-60.266,15.21-121.823,22.731-184.468c50.928,6.695,103.584-5.009,154.035-24.65c-7.392,59.908-14.66,121.436-21.873,184.455
		c-12.859-4.868-40.838,12.865-66.235,38.402c-23.946,24.112-35.966,51.61-23.611,66.973c11.693,14.458,42.93,2.193,67.192-30.687
		c13.945-18.922,22.122-37.582,26.824-51.986c4.742-14.539,7.889-30.052,7.889-30.052c8.574-77.741,17.241-152.975,26.109-225.519
		C4511.886,163.115,4395.455,140.123,4280.85,107.663z"/>
	<path fill="#020202" d="M405.254,9.422c-9.224,51.867-18.697,101.644-28.254,149.7c-12.062-12.621-42.56-16.564-66.763-4.857
		c-25.837,12.534-35.509,32.964-23.611,39.782c12.195,6.942,41.687,3.085,67.192-2.638c13.663-3.075,22.141-8.267,26.824-14.143
		c4.766-5.99,7.669-14.071,7.669-14.071c7.683-38.819,15.284-78.888,22.731-120.382c51.805,5.472,103.317,14.207,155.135,18.922
		c-7.446,59.83-14.951,118.13-22.599,174.747c-12.235-19.228-41.919-29.719-66.84-28.423c-25.045,1.329-35.407,14.715-23.612,33.906
		c12.257,19.884,42.151,40.66,67.193,39.345c13.791-0.747,22.188-9.126,26.824-17.977c4.811-9.201,7.669-21.525,7.669-21.525
		c7.683-58.328,15.23-118.221,22.731-179.505c51.262,3.577,102.803,2.024,154.035-3.413c-7.376,60.91-14.642,123.177-21.873,186.637
		c-12.895-9.807-41.073-0.489-66.235,19.114c-24.245,18.925-35.8,44.353-23.611,61.975c11.85,17.05,42.87,13.58,67.193-11.659
		c13.942-14.491,22.126-30.807,26.824-44.1c4.746-13.444,7.889-28.57,7.889-28.57c8.599-78.791,17.26-155.465,26.109-229.77
		C633.691,15.158,519.474,11.694,405.254,9.422z M566.642,50.642C514.554,46.979,462.668,39.905,410.59,35.51
		c0.421-1.538,0.841-3.079,1.261-4.624c52.062,3.829,103.982,9.93,156.052,13.045C567.483,46.171,567.063,48.408,566.642,50.642z
		 M576.727,51.309c0.421-2.268,0.841-4.538,1.261-6.811c51.971,2.723,104.093,1.718,156.052-2.143
		c-0.421,2.216-0.841,4.435-1.261,6.657C680.84,53.441,628.682,54.52,576.727,51.309z"/>
	<path d="M2767.118,167.434c-9.649,63.066-19.048,129.345-28.254,198.888c-12.303,0.512-41.808,30.737-66.764,69.529
		c-24.654,38.357-35.937,73.253-23.611,78.062c11.785,4.519,41.932-29.642,67.192-73.326c13.637-23.6,22.095-43.041,26.824-57.062
		c4.715-13.99,7.669-27.529,7.669-27.529c7.436-54.15,15.005-106.207,22.731-156.213c49.946-25.96,104.693-38.909,155.135-26.23
		c-7.487,36.553-15.07,72.759-22.599,108.871c-11.899-11.183-43.476-9.515-66.84,11.134c-26.709,23.653-35.61,50.609-23.612,52.053
		c12.085,1.405,40.604-16.419,67.192-28.564c13.392-6.121,22.094-11.742,26.824-17.671c4.718-5.924,7.669-13.553,7.669-13.553
		c7.596-36.03,15.222-72.39,22.731-109.327c0.021-0.067,0.043-0.135,0.064-0.202c1.967-9.676,3.929-19.408,5.885-29.199
		C2887.466,131.107,2824.875,141.825,2767.118,167.434z M2928.506,166.634c-50.837-12.24-105.721,0.385-156.052,25.759
		c0.42-1.862,0.84-3.719,1.261-5.573c50.386-24.582,105.194-36.417,156.052-24.174
		C2929.347,163.977,2928.927,165.306,2928.506,166.634z"/>
	<path id="path9104_3_" d="M2212.714,148.036c-18.417,1.785-36.806,6.025-54.981,11.767c3.767-14.835,7.569-29.382,11.402-43.654
		c18.24-3.503,36.616-5.728,54.955-6.067C2220.281,122.594,2216.484,135.238,2212.714,148.036z M2308.11,121.824
		c2.544-8.087,5.079-16.248,7.602-24.489c-19.254-5.029-38.679-8.63-58.109-10.485c5.104-16.117,10.218-32.286,15.3-48.562
		c-8.481-1.232-16.971-2.309-25.465-3.254c-5.252,16.715-10.517,33.476-15.748,50.346c-18.298-0.345-36.642,0.788-54.904,2.968
		c5.008-18.014,10.076-35.64,15.178-52.916c-8.492-0.461-16.986-0.852-25.48-1.214c-5.267,18.782-10.481,38.049-15.627,57.833
		c-15.112,2.51-30.183,5.515-45.26,8.617c-2.55,11.08-5.083,22.31-7.601,33.689c15.083-4.397,30.147-8.721,45.285-12.462
		c-3.836,15.342-7.637,31.002-11.402,46.985c-15.171,5.793-30.212,12.216-45.312,18.613c-2.538,12.184-5.062,24.517-7.572,36.996
		c15.106-7.665,30.114-15.464,45.284-22.665c-4.994,22.05-9.925,44.685-14.801,67.905c8.461-5.017,16.925-9.904,25.452-14.495
		c5.011-22.226,10.085-43.851,15.224-64.89c18.118-7.371,36.481-13.174,54.959-16.197c-4.937,17.189-9.836,34.749-14.677,52.715
		c8.432-2.235,16.943-3.824,25.456-4.629c4.994-17.123,10.042-33.935,15.111-50.485c19.378-0.331,39.019,2.809,58.097,8.982
		c2.539-7.71,5.074-15.456,7.602-23.245c-19.124-6.129-38.679-9.72-58.097-10.313c3.788-12.164,7.593-24.255,11.397-36.296
		C2269.439,112.408,2288.906,116.191,2308.11,121.824"/>
	<path id="path9248_5_" d="M4899.378,21.807c-61.92,4.588-124.385,9.038-185.738,23.441c-3.12,0.735-6.237,1.49-9.354,2.266
		c2.822,9.783,5.663,19.423,8.521,28.922c10.456,34.656,21.236,67.663,32.087,99.396c-13.056-0.141-33.109,9.67-49.047,26.545
		c-20.728,21.958-27.417,45.347-15.975,48.582c11.334,3.125,36.243-14.068,57.235-33.587c15.42-14.339,23.502-26.958,20.62-34.775
		c0.058-0.022,0.116-0.045,0.173-0.067c-12.046-34.92-24.099-71.036-35.741-108.932c57.887-17.009,117.59-21.087,176.406-21.049
		c8.41,30.255,16.663,61.872,24.745,94.922c-12.87-10.082-32.755-14.891-49.019-11.592c-20.291,4.1-27.14,17.506-15.996,29.37
		c11.648,12.352,37.007,22.363,57.222,21.645c15.914-0.588,23.535-9.718,20.641-21.479c0.063,0.018,0.125,0.035,0.188,0.053
		c-9.27-39.575-18.754-77.186-28.461-112.905C4905.069,42.159,4902.232,31.908,4899.378,21.807"/>
	<path id="path9248_3_" d="M1064.038,110.447c-61.509-9.434-125.955-7.809-185.738,16.765c-3.123,1.287-6.241,2.62-9.353,3.996
		c2.824,8.924,5.666,17.731,8.521,26.428c10.503,31.905,21.318,62.632,32.088,92.652c-13.096,0.822-33.228,13.253-49.047,32.635
		c-20.898,25.62-27.369,49.974-15.974,50.457c11.371,0.405,35.993-20.808,57.235-41.889c15.273-15.156,23.509-27.647,20.62-35.251
		c0.058-0.024,0.116-0.048,0.173-0.071c-11.936-33.613-24.028-67.672-35.741-102.877c56.297-25.063,118.368-24.891,176.406-11.316
		c8.418,33.209,16.66,67.937,24.745,104.215c-12.842-13.73-32.719-23.728-49.019-23.92c-20.213-0.252-27.071,12.349-15.996,26.685
		c11.711,15.109,37.048,31.47,57.221,35.966c15.907,3.522,23.535-3.918,20.641-16.831c0.063,0.035,0.125,0.069,0.188,0.104
		c-9.279-43.386-18.749-84.71-28.461-123.982C1069.73,132.784,1066.894,121.53,1064.038,110.447"/>
	<path id="path10417_1_" d="M1927.661,460.586c0,0-74.945-82.735-14.348-139.908c48.207-45.407,60.64-81.189,66.089-97.504
		c0-0.693,0-1.385,0-2.078c3.632-0.909,7.259-1.893,10.878-2.946c0,86.647,0,173.295,0,259.942c-0.067,0.043-0.133,0.085-0.2,0.128
		c0.187,15.843-11.208,42.156-32.618,60.869c-24.415,21.401-55.021,12.789-64.514-8.985c-9.726-22.363,4.865-41.396,29.696-53.938
		c21.902-11.092,43.396-17.328,56.758-13.482c0-53.927,0-107.855,0-161.782c-23.3,29.785-67.131,40.386-77.654,69.938
		C1887.574,411.023,1927.661,460.586,1927.661,460.586"/>
	<path d="M3184.768,300.383c-4.917-0.531-9.666-0.637-14.224-0.379c-3.611-18.591-7.059-36.574-10.111-53.065
		c24.947-19.595,45.082-51.477,44.633-110.094c0.061-42.079-13.441-75.835-27.804-76.816c-18.157-1.026-39.301,40.471-38.614,79.016
		c0.166,11.771,3.839,36.338,9.255,67.714c-32.464,26.32-73.888,38.166-73.928,80.233c-0.517,38.166,20.564,121.741,89.51,145.578
		c9.622,3.342,18.496,4.095,26.242,2.957c5.768,33.538,9.643,59.802,9.627,71.802c0.145,48.517-62.572,27.479-62.709-0.682
		c0,0-0.035-0.17,0.215-0.739c0.781,0.598,1.574,1.16,2.377,1.681c12.693,8.222,23.574,2.293,23.584-10.642
		c-0.01-12.938-10.858-27.561-23.584-35.08c-7.429-4.382-13.837-5.571-18.984-5.13c-5.227,0.455-9.554,4.33-9.709,18.574
		c0.096,36.401,96.505,107.991,96.602,29.752c0.147-10.542-4.224-37.027-10.573-71.092
		C3272.913,410.352,3247.782,308.414,3184.768,300.383z M3196.23,125.699c0.645,29.978-18.637,55.714-43.524,77.059
		c-2.335-14.685-3.792-26.148-3.958-32.959C3149.885,97.356,3196.183,79.237,3196.23,125.699z M3091.442,315.758
		c0.034-44.486,34.998-44.604,64.27-65.299c2.938,16.056,6.077,32.927,9.275,50.058c-41.568,5.4-66.99,50.355-2.595,101.029
		c-37.891-45.727-18.438-72.74,7.756-73.415c6.569,35.153,13.052,69.964,18.255,99.752c-7.006,1.559-15.421,1.234-24.918-1.999
		C3138.707,417.252,3091.49,368.882,3091.442,315.758z M3195.026,425.743c-5.534-29.314-12.295-63.446-18.933-97.316
		c1.066,0.131,2.138,0.3,3.218,0.519C3222.419,336.134,3243.009,404.721,3195.026,425.743z"/>
	<path d="M174.032,215.508c-4.81,2.808-9.474,6.03-13.927,9.562c-3.572-11.955-6.939-23.83-9.9-35.035
		c23.019-30.015,44.14-60.47,43.7-101.521c0.059-29.595-13.149-52.091-27.223-51.128c-17.761,1.378-38.481,40.766-37.807,74.038
		c0.162,10.151,3.663,29.623,9.062,53.265c-34.254,44.223-72.345,94.005-72.384,140.285c-0.507,42.684,27.536,83.166,87.64,31.056
		c9.536-8.249,18.039-16.528,25.693-24.52c5.573,19.079,9.442,34.27,9.426,42.856c0.141,34.416-61.265,103.936-61.399,79.427
		c0,0-0.035-0.093,0.211-0.982c0.766-0.695,1.542-1.435,2.327-2.221c12.84-12.862,23.081-32.06,23.092-42.392
		c-0.01-10.334-10.252-8.891-23.092,2.766c-7.146,6.496-13.555,14.964-18.587,23.227c-5.119,8.412-9.355,19.091-9.506,33.035
		c0.095,35.016,94.489-46.998,94.584-101.707c0.144-7.503-4.214-22.332-10.352-41.188
		C247.464,236.465,234.593,181.075,174.032,215.508z M185.255,82.62c0.63,21.395-19.592,46.338-42.615,76.007
		c-2.304-10.931-3.713-19.777-3.875-25.405C139.874,72.227,185.209,49.16,185.255,82.62z M82.657,315.487
		c0.033-45.917,32.292-80.232,62.928-119.481c2.851,11.049,5.92,22.379,9.081,33.625c-41.23,36.557-58.762,106.949-2.541,82.813
		c-35.378,3.044-18.097-43.478,7.594-65.156c6.315,21.711,12.715,42.37,17.873,59.805c-6.935,7.601-14.99,15.585-24.397,23.604
		C129.816,350.485,82.704,370.319,82.657,315.487z M184.077,299.711c-5.485-16.687-12.15-36.44-18.537-56.878
		c1.044-0.721,2.094-1.407,3.15-2.052C210.884,213.877,225.357,250.605,184.077,299.711z"/>
	<path d="M4061.957,252.186c-51.358-1.235-64.641-19.503-68.105-28.017c-0.007-1.595-0.014-3.19-0.021-4.784
		c-0.375,0.209-0.751,0.417-1.126,0.626c-0.076-0.407-0.087-0.695-0.087-0.695c0,0.247,0,0.495,0,0.742
		c-3.209,1.771-6.419,3.532-9.632,5.276c0.494,69.041,0.989,137.917,1.484,206.627c-12.965,4.521-35.15,24.394-56.547,50.859
		c-24.777,30.674-39.214,62.351-29.225,75.732c9.395,12.524,39.095-6.77,64.335-45.679c20.483-31.573,32.509-60.805,32.216-73.997
		c0.076-0.084,0.152-0.168,0.229-0.252c-0.37-48.641-0.74-97.373-1.11-146.197c23.338,2.439,68.515-27.354,79.337-13.788
		c14.486,18.379-25.375,80.978-25.375,80.978S4131.498,253.94,4061.957,252.186z M4064.578,267.484
		c-11.304-3.473-27.429-0.633-47.963,8.038C4033.168,261.092,4068.294,252.87,4064.578,267.484z"/>
	<path d="M2586.329,142.416c-53.121-48.753-64.6-82.592-68.105-95.456c-0.007-1.923-0.014-3.845-0.021-5.768
		c-0.375-0.01-0.751-0.02-1.126-0.03c-0.076-0.54-0.087-0.892-0.087-0.892c0,0.296,0,0.593,0,0.889
		c-3.211-0.099-6.422-0.209-9.632-0.331c0.495,80.432,0.99,160.95,1.484,241.554c-13.255-14.679-35.746-24.007-56.547-25.597
		c-25.97-1.956-38.792,9.81-29.225,32.24c9.81,22.951,38.382,49.221,64.335,49.709c20.311,0.379,32.51-14.915,32.217-31.359
		c0.076,0.02,0.152,0.04,0.228,0.061c-0.37-59.332-0.74-118.627-1.11-177.883c23.297,26.136,68.523,32.569,79.336,62.425
		c14.376,40.016-25.374,90.256-25.374,90.256S2650.104,201.007,2586.329,142.416z M2588.95,167.195
		c-11.421-15.619-27.649-27.108-47.962-36.421C2557.711,128.705,2592.691,148.995,2588.95,167.195z"/>
	<g>
		<path fill="none" stroke="#000000" stroke-width="10.3518" stroke-miterlimit="10" d="M5.176,595.939
			c126.969-11.214,200.233-258.758,320-249.568c126.694,10.208,199.839,257.959,320,249.67
			c126.412-9.205,199.45-257.142,320-249.761c126.123,8.206,199.065,256.309,320,249.843c125.827-7.211,198.685-255.46,320-249.915
			c125.525,6.219,198.31,254.594,320,249.976c125.216-5.232,197.94-253.712,320-250.028c124.9,4.249,197.576,252.813,320,250.07
			c124.579-3.271,197.217-251.899,320-250.101c124.25,2.297,196.864,250.97,320,250.122c123.916-1.328,196.516-250.024,320-250.134
			c123.576,0.365,196.174,249.063,320,250.135c123.23,0.593,195.838-248.087,320-250.126c122.878-1.546,195.508,247.096,320,250.108
			c122.52,2.493,195.185-246.09,320-250.079c122.157-3.434,194.868,245.07,320,250.04c0-196.655,0-393.309,0-589.964
			C3418.509,5.21,1711.842,4.488,5.176,6.225C5.176,20.125,5.176,595.939,5.176,595.939z"/>
		<path fill="none" stroke="#000000" stroke-width="10.3518" stroke-miterlimit="10" d="M5.176,153.653
			c1706.545-51.228,3412.917-29.931,5120,0.065"/>
		<path fill="none" stroke="#000000" stroke-width="10.3518" stroke-miterlimit="10" d="M5.176,301.082
			c112.211-4.998,209.838-130.133,320-125.869c112.126,4.556,209.732,129.757,320,125.92c112.04-4.115,209.626-129.375,320-125.967
			c111.953,3.674,209.521,128.987,320,126.008c111.865-3.233,209.417-128.593,320-126.044
			c111.775,2.793,209.314,128.193,320,126.075c111.684-2.354,209.212-127.787,320-126.101
			c111.592,1.915,209.111,127.376,320,126.122c111.499-1.476,209.011-126.958,320-126.138
			c111.404,1.039,208.912,126.534,320,126.149c111.309-0.602,208.814-126.105,320-126.155
			c111.212,0.166,208.717,125.669,320,126.155c111.114,0.27,208.621-125.228,320-126.151c111.016-0.704,208.527,124.781,320,126.141
			c110.916,1.138,208.433-124.329,320-126.127c110.815-1.571,208.341,123.87,320,126.107"/>
		<path fill="none" stroke="#000000" stroke-width="10.3518" stroke-miterlimit="10" d="M5.176,448.51
			c118.619-7.88,205.719-194.315,320-187.719c118.445,7.178,205.488,193.737,320,187.795c118.269-6.478,205.259-193.148,320-187.864
			c118.089,5.779,205.033,192.549,320,187.926c117.905-5.082,204.809-191.94,320-187.979c117.719,4.387,204.588,191.32,320,188.026
			c117.529-3.694,204.369-190.689,320-188.065c117.336,3.002,204.153,190.049,320,188.096c117.141-2.313,203.939-189.398,320-188.12
			c116.942,1.626,203.728,188.737,320,188.136c116.74-0.941,203.52-188.066,320-188.144c116.535,0.259,203.314,187.385,320,188.145
			c116.328,0.421,203.112-186.695,320-188.139c116.117-1.099,202.912,185.994,320,188.125
			c115.904,1.774,202.715-185.284,320-188.103c115.689-2.447,202.522,184.564,320,188.074"/>
	</g>
</g>
</svg>
